<svg preserveAspectRatio="none" width="100%" height="100%" overflow="visible" style="display: block;" viewBox="0 0 16.6232 24.7679" fill="none" xmlns="http://www.w3.org/2000/svg">
<g id="Group">
<path id="Vector" d="M8.26858 24.4046C4.52488 24.4046 1.75901 22.3662 0.613551 18.82L0.473858 18.3732H4.07787L4.16168 18.5686C4.88807 20.1603 6.42466 21.1097 8.2127 21.1097C10.8668 21.1097 12.7107 19.2667 12.7107 16.614V15.525C11.3697 17.0329 9.49785 17.8426 7.29074 17.8426C3.18385 17.8426 0.417981 15.0503 0.417981 10.9177V0.390634H3.93818V10.1358C3.93818 12.7606 5.61446 14.436 8.18476 14.436C10.9506 14.436 12.7107 12.7327 12.7107 10.08V0.390634H16.2309V16.6699C16.2309 21.2214 12.9342 24.4325 8.24064 24.4325L8.26858 24.4046Z" fill="var(--fill-0, white)"/>
<path id="Vector_2" d="M15.9247 0.726003V16.6422C15.9247 21.1379 12.6839 24.0419 8.2976 24.0419C4.66566 24.0419 2.03948 22.0035 0.977833 18.7086H3.88339C4.66566 20.4119 6.28606 21.4729 8.24173 21.4729C10.9517 21.4729 13.1029 19.5742 13.1029 16.6143V14.4921C11.8457 16.4189 9.86213 17.5079 7.31977 17.5079C3.40844 17.5079 0.810206 14.911 0.810206 10.918V0.726003H3.63195V10.1361C3.63195 12.9564 5.44792 14.7993 8.21379 14.7993C10.9797 14.7993 13.1029 12.9284 13.1029 10.0803V0.753927H15.9247M16.6231 0.0279232H12.4045V10.0524C12.4045 12.4817 10.7562 14.0733 8.21379 14.0733C5.81112 14.0733 4.3304 12.5654 4.3304 10.1082V0H0.111755V10.8901C0.111755 15.2461 3.01731 18.178 7.31977 18.178C9.30337 18.178 11.0635 17.5358 12.4045 16.363V16.6143C12.4045 19.0716 10.7003 20.7749 8.24173 20.7749C6.56544 20.7749 5.19648 19.9092 4.52597 18.4293L4.3304 18.0105H0L0.279382 18.9319C1.42484 22.5899 4.41421 24.7679 8.26967 24.7679C13.1868 24.7679 16.5952 21.445 16.5952 16.6702V0.0279232H16.6231Z" fill="var(--fill-0, white)"/>
</g>
</svg>
