<svg preserveAspectRatio="xMidYMid meet" viewBox="0 0 144.967 122.4" fill="none" xmlns="http://www.w3.org/2000/svg">
<g id="share">
<g id="Icon" filter="url(#filter0_d_0_226)">
<path d="M111.505 54.5892C112.635 53.7697 112.599 52.0736 111.435 51.3027L73.3447 26.0716C72.0152 25.191 70.2402 26.1443 70.2402 27.739L70.2402 38.7484C70.2402 39.6915 69.5592 40.5075 68.6428 40.7302C41.253 47.3859 34.3866 69.8721 32.6652 80.728C32.3642 82.6263 34.7097 83.5786 36.0578 82.2087C41.9471 76.2242 53.8902 66.4764 68.48 67.4468C69.4864 67.5137 70.2402 68.3721 70.2402 69.3808L70.2402 80.5895C70.2402 82.2228 72.092 83.1675 73.4142 82.2087L111.505 54.5892Z" fill="url(#paint0_linear_0_226)"/>
<path d="M67.7397 27.7388C67.7398 24.1508 71.7338 22.0064 74.7251 23.9879L112.816 49.2183C115.435 50.953 115.515 54.7689 112.972 56.6129L74.8813 84.233C71.9063 86.3896 67.7397 84.2641 67.7397 80.5894V69.9088C54.5656 69.3052 43.5532 78.1563 37.8393 83.9625C36.4007 85.4241 34.3685 85.6747 32.7671 84.9957C31.1084 84.2924 29.8465 82.5393 30.1958 80.3365L30.3794 79.2486C32.4398 67.6855 40.0303 45.2656 67.7397 38.3785V27.7388Z" stroke="white" stroke-width="5"/>
</g>
</g>
<defs>
<filter id="filter0_d_0_226" x="0" y="8.34465e-07" width="144.967" height="122.4" filterUnits="userSpaceOnUse" color-interpolation-filters="sRGB">
<feFlood flood-opacity="0" result="BackgroundImageFix"/>
<feColorMatrix in="SourceAlpha" type="matrix" values="0 0 0 0 0 0 0 0 0 0 0 0 0 0 0 0 0 0 127 0" result="hardAlpha"/>
<feOffset dy="6.90909"/>
<feGaussianBlur stdDeviation="13.8182"/>
<feComposite in2="hardAlpha" operator="out"/>
<feColorMatrix type="matrix" values="0 0 0 0 0 0 0 0 0 0 0 0 0 0 0 0 0 0 0.25 0"/>
<feBlend mode="normal" in2="BackgroundImageFix" result="effect1_dropShadow_0_226"/>
<feBlend mode="normal" in="SourceGraphic" in2="effect1_dropShadow_0_226" result="shape"/>
</filter>
<linearGradient id="paint0_linear_0_226" x1="32.0893" y1="55.3527" x2="113.84" y2="55.3527" gradientUnits="userSpaceOnUse">
<stop stop-color="#9E00F9"/>
<stop offset="0.870192" stop-color="#C655FF"/>
</linearGradient>
</defs>
</svg>
